<svg width="126" height="52" viewBox="0 0 126 52" fill="none" xmlns="http://www.w3.org/2000/svg">
<path d="M8.4939 4.55611C8.68443 4.30947 9.07433 4.43353 9.08763 4.74516C9.1467 6.25458 9.67101 7.58676 10.7462 8.68264C11.8495 9.80658 13.2141 10.3368 14.7413 10.3737C15.0426 10.3811 15.1755 10.7562 14.9466 10.9541C14.2982 11.5154 12.997 12.0574 12.1773 12.0973C10.182 12.1962 7.97403 10.6071 7.5339 8.33851C7.28578 7.06245 7.83224 5.41125 8.49243 4.55611H8.4939Z" fill="#EFECE3"/>
<path d="M26.5507 7.90887C26.5507 8.00931 26.4872 8.05361 26.3853 8.07281C26.0722 8.12894 25.3677 8.3298 24.9468 8.52032C24.74 8.61337 24.5776 8.78174 24.4889 8.98998C24.2512 9.55712 24.0045 10.6427 23.9307 10.9853C23.91 11.0798 23.8214 11.1537 23.718 11.1537C23.6146 11.1537 23.526 11.0784 23.5053 10.9853C23.4315 10.6412 23.1848 9.55564 22.947 8.98998C22.8584 8.78174 22.696 8.61337 22.4892 8.52032C22.0697 8.33127 21.3653 8.13041 21.0507 8.07281C20.9473 8.05361 20.8853 8.00931 20.8853 7.90887C20.8853 7.80844 20.9488 7.76414 21.0507 7.74494C21.3638 7.68734 22.0683 7.48795 22.4892 7.29743C22.696 7.20438 22.8584 7.03601 22.947 6.82777C23.1848 6.26063 23.4315 5.17509 23.5053 4.83097C23.526 4.73644 23.6146 4.6626 23.718 4.6626C23.8214 4.6626 23.91 4.73792 23.9307 4.83097C24.0045 5.17509 24.2512 6.26063 24.4889 6.82777C24.5776 7.03601 24.74 7.20438 24.9468 7.29743C25.3662 7.48647 26.0707 7.68734 26.3853 7.74494C26.4887 7.76414 26.5507 7.80844 26.5507 7.90887Z" fill="#EFECE3"/>
<path d="M20.6107 1.74868C20.6107 1.80332 20.5767 1.82695 20.5206 1.83729C20.3522 1.86831 19.9726 1.97612 19.7452 2.07803C19.633 2.12825 19.5458 2.21834 19.4986 2.33058C19.3701 2.63631 19.2371 3.22117 19.1973 3.40578C19.1869 3.456 19.1382 3.49735 19.0835 3.49735C19.0289 3.49735 18.9802 3.45748 18.9698 3.40578C18.9299 3.22117 18.797 2.63631 18.6685 2.33058C18.6213 2.21834 18.5341 2.12825 18.4219 2.07803C18.1959 1.97612 17.8163 1.86831 17.6465 1.83729C17.5904 1.82695 17.5564 1.80332 17.5564 1.74868C17.5564 1.69403 17.5904 1.6704 17.6465 1.66006C17.8149 1.62905 18.1944 1.52123 18.4219 1.41932C18.5341 1.36911 18.6213 1.27902 18.6685 1.16677C18.797 0.861046 18.9299 0.276185 18.9698 0.0915692C18.9802 0.0413538 19.0289 0 19.0835 0C19.1382 0 19.1869 0.0398769 19.1973 0.0915692C19.2371 0.276185 19.3701 0.861046 19.4986 1.16677C19.5458 1.27902 19.633 1.36911 19.7452 1.41932C19.9712 1.52123 20.3507 1.62905 20.5206 1.66006C20.5767 1.6704 20.6107 1.69403 20.6107 1.74868Z" fill="#EFECE3"/>
<path d="M11.7741 42.7571H9.51888C9.11125 42.7571 8.78042 42.4262 8.78042 42.0186C8.78042 41.611 9.11125 41.2801 9.51888 41.2801H11.7741C12.2719 41.2801 12.6765 40.8755 12.6765 40.3777V35.2602C12.6765 34.7625 12.2719 34.3578 11.7741 34.3578H4.1163C4.10005 34.3578 4.08676 34.3578 4.0779 34.3578C4.0587 34.3696 4.03211 34.3888 4.00848 34.4051C3.96565 34.4346 3.91839 34.4671 3.86522 34.5025C3.52405 34.7255 3.06621 34.6295 2.84319 34.2884C2.62018 33.9472 2.71618 33.4894 3.05734 33.2663C3.09722 33.2398 3.13267 33.2161 3.16368 33.194C3.41033 33.0212 3.65254 32.8794 4.11778 32.8794H11.7756C13.0871 32.8794 14.1549 33.9472 14.1549 35.2587V40.3763C14.1549 41.6878 13.0871 42.7556 11.7756 42.7556L11.7741 42.7571Z" fill="#EFECE3"/>
<path d="M23.4684 48.0001C11.08 48.0001 1 37.9215 1 25.5316V21.1732C1 20.9295 1.11963 20.7036 1.31902 20.5647L7.87655 16.0483C8.14388 15.8652 8.49834 15.8755 8.75237 16.0764L22.4981 26.917C22.7447 27.1119 22.8422 27.4413 22.7388 27.7381C22.6354 28.035 22.3563 28.2344 22.0417 28.2344H2.64972C3.98043 38.5359 12.8095 46.5217 23.4684 46.5217C35.0431 46.5217 44.4599 37.1048 44.4599 25.5301C44.4599 25.1225 44.7908 24.7917 45.1984 24.7917C45.606 24.7917 45.9369 25.1225 45.9369 25.5301C45.9369 37.9186 35.8583 47.9986 23.4684 47.9986V48.0001ZM2.51237 26.7589H19.9135L8.26646 17.574L2.47692 21.5617V25.5316C2.47692 25.9437 2.48874 26.3528 2.51237 26.7589Z" fill="#EFECE3"/>
<path d="M18.9802 33.1066C18.5725 33.1066 18.2417 32.7758 18.2417 32.3681V27.4973C18.2417 27.0896 18.5725 26.7588 18.9802 26.7588C19.3878 26.7588 19.7186 27.0896 19.7186 27.4973V32.3681C19.7186 32.7758 19.3878 33.1066 18.9802 33.1066Z" fill="#EFECE3"/>
<path d="M7.94598 41.4246C7.53835 41.4246 7.20752 41.0938 7.20752 40.6862V33.8259C7.20752 33.4182 7.53835 33.0874 7.94598 33.0874C8.35361 33.0874 8.68444 33.4182 8.68444 33.8259V40.6862C8.68444 41.0938 8.35361 41.4246 7.94598 41.4246Z" fill="#EFECE3"/>
<path d="M35.1537 44.2147C34.7461 44.2147 34.4153 43.8839 34.4153 43.4763V32.3683C34.4153 31.9607 34.7461 31.6299 35.1537 31.6299C35.5614 31.6299 35.8922 31.9607 35.8922 32.3683V43.4763C35.8922 43.8839 35.5614 44.2147 35.1537 44.2147Z" fill="#EFECE3"/>
<path d="M35.0166 40.434H18.9816C18.574 40.434 18.2432 40.1031 18.2432 39.6955C18.2432 39.2879 18.574 38.957 18.9816 38.957H35.0166C35.4242 38.957 35.755 39.2879 35.755 39.6955C35.755 40.1031 35.4242 40.434 35.0166 40.434Z" fill="#EFECE3"/>
<path d="M30.2048 40.4338C29.7971 40.4338 29.4663 40.103 29.4663 39.6954V32.6047C29.4663 32.197 29.7971 31.8662 30.2048 31.8662C30.6124 31.8662 30.9432 32.197 30.9432 32.6047V39.6954C30.9432 40.103 30.6124 40.4338 30.2048 40.4338Z" fill="#EFECE3"/>
<path d="M18.98 46.9158C18.5724 46.9158 18.2416 46.585 18.2416 46.1774V32.3681C18.2416 31.9605 18.5724 31.6297 18.98 31.6297H36.8612L30.2992 28.0747C30.2623 28.054 30.2268 28.0319 30.1928 28.0053L19.1484 19.2826H10.9943C10.5867 19.2826 10.2559 18.9518 10.2559 18.5441C10.2559 18.1365 10.5867 17.8057 10.9943 17.8057H19.4054C19.5708 17.8057 19.7333 17.8618 19.8632 17.9652L31.0598 26.8075L40.1281 31.7198C40.425 31.8807 40.5756 32.2234 40.4929 32.5498C40.4102 32.8762 40.1148 33.1066 39.7766 33.1066H19.7185V46.1774C19.7185 46.585 19.3877 46.9158 18.98 46.9158Z" fill="#EFECE3"/>
<path d="M24.1286 23.015H19.5295C19.1218 23.015 18.791 22.6842 18.791 22.2765C18.791 21.8689 19.1218 21.5381 19.5295 21.5381H24.1286C24.5362 21.5381 24.8671 21.8689 24.8671 22.2765C24.8671 22.6842 24.5362 23.015 24.1286 23.015Z" fill="#EFECE3"/>
<path d="M13.9865 21.9545H9.38739C8.97976 21.9545 8.64893 21.6236 8.64893 21.216C8.64893 20.8084 8.97976 20.4775 9.38739 20.4775H13.9865C14.3942 20.4775 14.725 20.8084 14.725 21.216C14.725 21.6236 14.3942 21.9545 13.9865 21.9545Z" fill="#EFECE3"/>
<path d="M18.1396 25.2792H13.5405C13.1328 25.2792 12.802 24.9483 12.802 24.5407C12.802 24.1331 13.1328 23.8022 13.5405 23.8022H18.1396C18.5472 23.8022 18.8781 24.1331 18.8781 24.5407C18.8781 24.9483 18.5472 25.2792 18.1396 25.2792Z" fill="#EFECE3"/>
<path d="M28.0676 26.1473H23.4684C23.0608 26.1473 22.73 25.8165 22.73 25.4089C22.73 25.0012 23.0608 24.6704 23.4684 24.6704H28.0676C28.4752 24.6704 28.806 25.0012 28.806 25.4089C28.806 25.8165 28.4752 26.1473 28.0676 26.1473Z" fill="#EFECE3"/>
<path d="M32.7774 29.348H27.5727C27.1651 29.348 26.8342 29.0172 26.8342 28.6096C26.8342 28.2019 27.1651 27.8711 27.5727 27.8711H32.7774C33.185 27.8711 33.5158 28.2019 33.5158 28.6096C33.5158 29.0172 33.185 29.348 32.7774 29.348Z" fill="#EFECE3"/>
<path d="M41.8945 37.4078C41.4868 37.4078 41.156 37.0769 41.156 36.6693V11.4538C41.156 11.0462 41.4868 10.7153 41.8945 10.7153C42.3021 10.7153 42.6329 11.0462 42.6329 11.4538V36.6693C42.6329 37.0769 42.3021 37.4078 41.8945 37.4078Z" fill="#EFECE3"/>
<path d="M46.4109 15.8962C43.5132 15.8962 41.156 13.539 41.156 10.6413C41.156 10.2337 41.4868 9.90283 41.8945 9.90283C42.3021 9.90283 42.6329 10.2337 42.6329 10.6413C42.6329 12.7238 44.3284 14.4193 46.4109 14.4193C46.8185 14.4193 47.1494 14.7501 47.1494 15.1577C47.1494 15.5654 46.8185 15.8962 46.4109 15.8962Z" fill="#EFECE3"/>
<path d="M37.3781 15.8962C36.9705 15.8962 36.6396 15.5654 36.6396 15.1577C36.6396 14.7501 36.9705 14.4193 37.3781 14.4193C39.4606 14.4193 41.1561 12.7252 41.1561 10.6413C41.1561 10.2337 41.4869 9.90283 41.8945 9.90283C42.3022 9.90283 42.633 10.2337 42.633 10.6413C42.633 13.539 40.2758 15.8962 37.3781 15.8962Z" fill="#EFECE3"/>
<path d="M47.8896 21.1895C44.1766 21.1895 41.1548 18.1692 41.1548 14.4562C41.1548 14.0486 41.4856 13.7178 41.8932 13.7178C42.3009 13.7178 42.6317 14.0486 42.6317 14.4562C42.6317 17.3554 44.9904 19.7126 47.8896 19.7126C48.2972 19.7126 48.628 20.0434 48.628 20.4511C48.628 20.8587 48.2972 21.1895 47.8896 21.1895Z" fill="#EFECE3"/>
<path d="M35.8984 21.1895C35.4907 21.1895 35.1599 20.8587 35.1599 20.4511C35.1599 20.0434 35.4907 19.7126 35.8984 19.7126C38.7976 19.7126 41.1562 17.354 41.1562 14.4562C41.1562 14.0486 41.4871 13.7178 41.8947 13.7178C42.3023 13.7178 42.6331 14.0486 42.6331 14.4562C42.6331 18.1692 39.6128 21.1895 35.8984 21.1895Z" fill="#EFECE3"/>
<path d="M49.1905 27.3481C44.7597 27.3481 41.1545 23.743 41.1545 19.3122C41.1545 18.9046 41.4854 18.5737 41.893 18.5737C42.3006 18.5737 42.6315 18.9046 42.6315 19.3122C42.6315 22.9292 45.5735 25.8712 49.1905 25.8712C49.5981 25.8712 49.9289 26.202 49.9289 26.6097C49.9289 27.0173 49.5981 27.3481 49.1905 27.3481Z" fill="#EFECE3"/>
<path d="M34.5971 27.3481C34.1895 27.3481 33.8586 27.0173 33.8586 26.6097C33.8586 26.202 34.1895 25.8712 34.5971 25.8712C38.2141 25.8712 41.1561 22.9292 41.1561 19.3122C41.1561 18.9046 41.487 18.5737 41.8946 18.5737C42.3022 18.5737 42.633 18.9046 42.633 19.3122C42.633 23.743 39.0279 27.3481 34.5971 27.3481Z" fill="#EFECE3"/>
<path d="M31.1764 28.3333C30.7688 28.3333 30.438 28.0025 30.438 27.5948V15.6052C30.438 15.1975 30.7688 14.8667 31.1764 14.8667C31.5841 14.8667 31.9149 15.1975 31.9149 15.6052V27.5948C31.9149 28.0025 31.5841 28.3333 31.1764 28.3333Z" fill="#EFECE3"/>
<path d="M34.9072 19.4039C32.4436 19.4039 30.438 17.3997 30.438 14.9348C30.438 14.5271 30.7688 14.1963 31.1764 14.1963C31.5841 14.1963 31.9149 14.5271 31.9149 14.9348C31.9149 16.5845 33.2574 17.927 34.9072 17.927C35.3148 17.927 35.6456 18.2578 35.6456 18.6655C35.6456 19.0731 35.3148 19.4039 34.9072 19.4039Z" fill="#EFECE3"/>
<path d="M27.4472 19.4039C27.0396 19.4039 26.7087 19.0731 26.7087 18.6655C26.7087 18.2578 27.0396 17.927 27.4472 17.927C29.0969 17.927 30.4394 16.5845 30.4394 14.9348C30.4394 14.5271 30.7703 14.1963 31.1779 14.1963C31.5855 14.1963 31.9164 14.5271 31.9164 14.9348C31.9164 17.3983 29.9122 19.4039 27.4472 19.4039Z" fill="#EFECE3"/>
<path d="M36.1286 24.554C32.9916 24.554 30.438 22.0019 30.438 18.8635C30.438 18.4558 30.7688 18.125 31.1764 18.125C31.5841 18.125 31.9149 18.4558 31.9149 18.8635C31.9149 21.1867 33.8054 23.0771 36.1286 23.0771C36.5362 23.0771 36.867 23.408 36.867 23.8156C36.867 24.2232 36.5362 24.554 36.1286 24.554Z" fill="#EFECE3"/>
<path d="M26.2258 24.554C25.8181 24.554 25.4873 24.2232 25.4873 23.8156C25.4873 23.408 25.8181 23.0771 26.2258 23.0771C28.549 23.0771 30.4394 21.1867 30.4394 18.8635C30.4394 18.4558 30.7703 18.125 31.1779 18.125C31.5855 18.125 31.9164 18.4558 31.9164 18.8635C31.9164 22.0004 29.3642 24.554 26.2258 24.554Z" fill="#EFECE3"/>
<path d="M84.3651 43.9779C84.0207 43.9779 83.6726 43.9451 83.2972 43.8795C81.4804 43.588 79.6746 42.7716 77.7776 41.3812C77.2473 40.9949 76.7171 40.5958 76.205 40.2113C75.1536 39.4205 74.0657 38.6004 72.934 37.8606C72.3218 37.4524 71.6658 37.0388 70.9259 36.5941C70.751 36.4848 70.6325 36.4356 70.5469 36.4356C70.3756 36.4356 70.341 36.6288 70.341 36.9167C70.341 37.5782 70.3064 38.4437 70.0403 39.2747C69.4645 40.9603 67.8682 42.0919 66.066 42.0919C65.6705 42.0919 65.2769 42.0372 64.8961 41.9279C62.5782 41.3083 61.3354 39.2619 61.8037 36.8365C62.241 34.4767 64.2182 32.8294 66.6126 32.8294C66.8149 32.8294 67.0226 32.8421 67.2249 32.8658C67.3616 32.884 67.4582 32.8913 67.5365 32.8913C67.9064 32.8913 67.9647 32.7036 67.9647 32.1005C67.983 29.8263 67.9775 27.5138 67.9702 25.2779C67.9666 24.1408 67.9647 23.0037 67.9647 21.8667C67.9647 21.6462 67.9684 21.4238 67.9702 21.2052C67.9757 20.7769 67.983 20.3341 67.9647 19.9132C67.9647 19.2134 67.8991 19.1242 67.2595 18.9565C66.1516 18.6631 65.2332 18.47 64.3676 18.3515C64.2164 18.3278 64.0633 18.3151 63.9157 18.3151C63.1576 18.3151 62.4615 18.6303 61.9568 19.2007C61.4465 19.7783 61.1969 20.5619 61.288 21.2926C61.3919 22.1783 61.9349 23.124 63.1449 23.124C63.2542 23.124 63.369 23.1167 63.4875 23.1003C64.2419 23.0165 64.743 22.5154 64.8268 21.7591V21.0138C64.8542 20.3268 65.1712 19.9351 65.7708 19.8531C65.8127 19.8494 65.8546 19.8476 65.8965 19.8476C66.4322 19.8476 66.8386 20.1756 67.0117 20.746C67.2541 21.4986 67.1721 22.3058 66.7657 23.1495C66.1133 24.4561 65.0364 25.2014 63.5658 25.3654C63.4164 25.38 63.267 25.3873 63.1212 25.3873C61.7162 25.3873 60.7832 24.7331 60.2475 24.1846C59.453 23.3718 58.9956 22.2165 59.0248 21.0958C59.1104 18.9073 60.0598 17.4021 61.9276 16.4946C62.5034 16.2067 63.1522 16.0664 63.912 16.0664C64.2255 16.0664 64.5535 16.0901 64.9125 16.1393C65.7562 16.2614 66.5871 16.4746 67.3907 16.6787C68.0267 16.8409 68.6827 17.0085 69.3406 17.1288C69.8344 17.2327 70.1442 17.5607 70.2572 18.1019C70.3118 18.3752 70.3118 18.6813 70.3118 18.9784V25.8829C70.3118 26.661 70.3155 27.4391 70.3173 28.219C70.3227 29.757 70.33 31.346 70.3118 32.9241C70.3118 33.5309 70.4959 33.828 71.0389 34.0995C73.355 35.2858 75.4469 36.8092 77.3621 38.2779C77.5389 38.4109 77.7156 38.544 77.8924 38.6788C78.6869 39.282 79.5087 39.9052 80.3907 40.4263C81.3401 40.9894 82.2695 41.3776 83.2298 41.6126C83.5359 41.6746 83.8384 41.7037 84.1537 41.7037C84.5109 41.7037 84.8771 41.6655 85.2762 41.5853C85.4056 41.5634 85.5277 41.5525 85.6388 41.5525C86.078 41.5525 86.3732 41.7165 86.5718 42.0682C86.754 42.3689 86.7996 42.7023 86.6976 43.0085C86.5955 43.3146 86.3604 43.5552 86.0324 43.6864C85.4967 43.8813 84.95 43.9761 84.3614 43.9761L84.3651 43.9779ZM66.6564 35.0634C65.2551 35.0634 64.1344 36.073 63.9303 37.5162C63.8464 38.2943 64.118 38.9303 64.7357 39.4077C65.1002 39.7084 65.5029 39.8615 65.9366 39.8615C66.2427 39.8615 66.5598 39.7831 66.8769 39.6318C67.6149 39.3202 67.9903 38.7316 67.9629 37.9317V35.7869C67.9629 35.468 67.8135 35.2712 67.5055 35.1874C67.2231 35.1054 66.9352 35.0634 66.6545 35.0634H66.6564Z" fill="#EFECE3"/>
<path d="M80.5966 37.141C80.1502 37.141 79.6892 37.141 79.2227 37.1136C78.778 37.1136 78.4409 36.9843 78.1639 36.7073C77.8286 36.3428 77.7485 36.0203 77.8942 35.6303C78.071 35.1893 78.3607 34.9524 78.7835 34.9014H79.3575C79.8113 34.8741 79.9024 34.7775 79.9297 34.3019V26.1309C79.9024 25.586 79.8495 25.4767 79.3028 25.4475H78.8619C78.2988 25.3674 77.8651 24.9574 77.8122 24.4508C77.7849 23.9551 78.1475 23.4777 78.676 23.3191C78.8582 23.259 79.055 23.228 79.2609 23.228C79.3284 23.228 79.3958 23.2317 79.465 23.239H82.7414C83.0494 23.239 83.3155 23.239 83.5852 23.3483C84.0753 23.5032 84.4234 23.9788 84.396 24.4544C84.3687 24.9082 83.9332 25.3437 83.4248 25.4238C83.3155 25.4366 83.2134 25.4439 83.1114 25.4512C83.0075 25.4585 82.9036 25.4658 82.7943 25.4785C82.4389 25.5059 82.3077 25.5879 82.2786 25.9942V33.9739C82.2786 34.8686 82.2859 34.8759 83.1533 34.9051C83.6453 34.9051 83.9605 35.0454 84.181 35.3624C84.4799 35.7688 84.4799 36.1679 84.181 36.5451C83.8949 36.9259 83.5104 37.11 82.9328 37.141H80.5948H80.5966Z" fill="#EFECE3"/>
<path d="M88.0518 37.1138C87.5835 37.1138 87.137 36.7038 87.0569 36.1972C87.0022 35.9785 87.0022 35.7307 87.0022 35.5139V24.9502C87.0022 24.8409 87.0022 24.706 87.0295 24.5985C87.0587 23.7803 87.4887 23.3503 88.2723 23.3503C88.8682 23.3503 89.4659 23.3466 90.0636 23.3448C90.6649 23.3412 91.2663 23.3394 91.8676 23.3394C92.54 23.3394 93.1286 23.343 93.6625 23.3521C95.7982 23.4323 97.431 24.8937 97.8228 27.075C98.0615 28.4052 97.3162 30.4152 95.8256 31.288C95.8092 31.2953 95.7873 31.3044 95.7673 31.3136C95.7217 31.3336 95.678 31.3518 95.6561 31.3737C95.1495 31.6543 95.1276 31.729 95.4046 32.2538C95.698 32.8789 96.0224 33.513 96.3358 34.1289C96.4943 34.4387 96.6529 34.7503 96.8078 35.0601L97.0556 35.5558C97.2688 36.1444 97.1066 36.6327 96.5964 36.9279C96.3996 37.0354 96.1991 37.0919 96.0023 37.0919C95.6561 37.0919 95.3481 36.9243 95.1131 36.6054L94.8671 36.1134C94.3186 35.0656 93.7591 33.9558 93.1068 32.6201C92.8772 32.1591 92.6002 31.9732 92.1537 31.9732C92.1264 31.9732 92.0972 31.9732 92.0662 31.975C91.7091 31.9896 91.3483 31.9896 90.9984 31.9896C90.6485 31.9896 90.2932 31.9896 89.9488 32.0042C89.3456 32.0042 89.2399 32.1062 89.2399 32.6875V35.4938C89.2399 35.7635 89.2399 36.0405 89.1579 36.312C88.9957 36.8259 88.593 37.1211 88.0518 37.1211V37.1138ZM92.0407 29.7318C92.2047 29.7318 92.3687 29.7355 92.5346 29.7373C92.7022 29.7409 92.8699 29.7428 93.0412 29.7428C93.2307 29.7428 93.4001 29.7391 93.555 29.73C94.5026 29.6735 95.3317 29.043 95.5285 28.2267C95.7144 27.2937 95.4137 26.6832 95.1276 26.3333C94.7431 25.865 94.1418 25.5844 93.5186 25.5844H91.7929C91.5724 25.5844 91.3537 25.5826 91.1369 25.5789C90.9219 25.5753 90.7068 25.5734 90.4918 25.5734C90.2495 25.5734 90.0363 25.5771 89.8376 25.5862C89.3839 25.5862 89.2654 25.7046 89.2654 26.1584C89.2381 27.1533 89.2381 28.1629 89.2654 29.1578C89.2654 29.6389 89.3566 29.73 89.8376 29.73C90.0599 29.7391 90.3005 29.7428 90.5738 29.7428C90.8162 29.7428 91.0585 29.7391 91.3009 29.7373C91.5451 29.7337 91.7911 29.7318 92.0389 29.7318H92.0407Z" fill="#EFECE3"/>
<path d="M106.542 37.0207C104.179 37.0207 101.994 35.7123 100.837 33.6039C100.192 32.4541 99.8783 31.2441 99.9038 30.0123C99.9913 28.1062 100.664 26.5099 101.905 25.2689C102.743 24.4307 103.676 23.8658 104.756 23.5414C105.274 23.4011 105.848 23.3228 106.373 23.3228H106.489C108.297 23.3228 109.749 23.9059 111.06 25.1596C111.142 25.2416 111.251 25.3509 111.304 25.4311C111.652 25.8867 111.628 26.539 111.251 26.9162C111.074 27.1076 110.808 27.2169 110.52 27.2169C110.261 27.2169 110.003 27.1295 109.795 26.9691C109.717 26.9053 109.638 26.8397 109.56 26.7723C109.336 26.5828 109.104 26.3878 108.858 26.2256C108.224 25.7828 107.406 25.5386 106.553 25.5386C104.975 25.5386 103.594 26.3222 102.856 27.636C101.861 29.4273 101.908 31.1749 102.994 32.8313C103.543 33.6987 104.337 34.3091 105.29 34.6007C105.739 34.7356 106.181 34.8048 106.602 34.8048C107.555 34.8048 108.445 34.4567 109.245 33.7716C109.31 33.7169 109.372 33.6568 109.432 33.5985C109.525 33.5092 109.611 33.4254 109.709 33.3597C109.955 33.1885 110.225 33.0973 110.487 33.0973C110.799 33.0973 111.078 33.2285 111.275 33.4654C111.665 33.9119 111.641 34.5843 111.22 35.0308C110.269 35.982 109.163 36.5997 107.931 36.8676C107.472 36.9696 107.003 37.0225 106.535 37.0225L106.542 37.0207Z" fill="#EFECE3"/>
<path d="M124.103 37.0881C123.815 37.0881 123.54 36.9569 123.309 36.709C123.143 36.5432 123.064 36.3537 122.982 36.1387C122.669 35.4061 122.372 34.6809 122.048 33.8554C122.028 33.8062 122.004 33.7533 121.98 33.6987C121.936 33.5984 121.891 33.4946 121.856 33.3889C121.716 33.0262 121.441 32.8513 121.009 32.8513C120.475 32.8659 119.928 32.8714 119.382 32.8714C118.835 32.8714 118.283 32.8641 117.734 32.8513C117.324 32.8513 117.087 33.0153 116.914 33.4144C116.586 34.2891 116.225 35.1765 115.877 36.0348L115.87 36.0548C115.763 36.2954 115.651 36.545 115.462 36.7345C115.218 36.9605 114.961 37.0771 114.7 37.0771C114.56 37.0771 114.418 37.0443 114.278 36.9787C113.851 36.7929 113.631 36.4484 113.603 35.9255C113.603 35.6521 113.716 35.346 113.822 35.0818C114.653 33.0882 115.46 31.0819 116.242 29.1394L118.223 24.243C118.263 24.1755 118.299 24.099 118.332 24.0243C118.365 23.9514 118.399 23.8749 118.441 23.8074C118.669 23.4466 119.014 23.2407 119.387 23.2407C119.728 23.2407 120.052 23.4175 120.275 23.7273C120.411 23.9113 120.493 24.0972 120.579 24.2958L120.63 24.4106C120.843 24.9409 121.062 25.4748 121.28 26.0124C121.647 26.9108 122.026 27.8401 122.388 28.7567L124.865 34.8631C124.972 35.1328 125.083 35.4116 125.167 35.6867C125.297 36.1769 125.074 36.6744 124.601 36.9532C124.44 37.0443 124.273 37.0899 124.103 37.0899V37.0881ZM119.356 27.5139C119.356 27.5139 119.342 27.5194 119.338 27.5285L118.458 29.5913C118.376 29.7808 118.292 29.9776 118.237 30.1999C118.192 30.3348 118.195 30.4405 118.246 30.5134C118.294 30.5808 118.381 30.6136 118.507 30.6136C118.793 30.6282 119.086 30.6336 119.373 30.6336C119.659 30.6336 119.952 30.6263 120.24 30.6136C120.388 30.6136 120.491 30.5735 120.544 30.497C120.599 30.415 120.597 30.2965 120.535 30.1434C120.366 29.6824 120.158 29.1776 119.903 28.6018C119.87 28.5234 119.841 28.4451 119.812 28.3631C119.713 28.097 119.611 27.8201 119.378 27.523C119.374 27.5176 119.367 27.5139 119.36 27.5139C119.36 27.5139 119.358 27.5139 119.356 27.5139Z" fill="#EFECE3"/>
<path d="M77.8069 13.039C78.479 13.0297 78.9886 13.2568 79.4243 13.6722C79.452 13.6999 79.4908 13.7387 79.5092 13.7664C79.633 13.927 79.6219 14.1541 79.4908 14.2871C79.3671 14.42 79.1418 14.4292 78.9793 14.3055C78.876 14.2206 78.7707 14.1264 78.6581 14.0507C78.0617 13.6353 77.0407 13.7572 76.6068 14.5326C76.2763 15.129 76.2763 15.7328 76.6548 16.3107C76.8339 16.595 77.0998 16.811 77.4395 16.9163C77.9399 17.0677 78.3941 16.9735 78.791 16.6319C78.8483 16.5839 78.8944 16.5285 78.9517 16.4897C79.14 16.3568 79.3671 16.366 79.5 16.5267C79.6329 16.6781 79.6329 16.9144 79.4815 17.075C79.1603 17.3963 78.7818 17.6142 78.3479 17.7083C77.3749 17.9262 76.3816 17.4628 75.8997 16.5839C75.6818 16.1962 75.5692 15.7808 75.5784 15.345C75.6061 14.721 75.8147 14.1634 76.2689 13.7092C76.5533 13.4248 76.8745 13.2273 77.253 13.1128C77.4617 13.0556 77.6592 13.0371 77.8106 13.0371L77.8069 13.039Z" fill="#EFECE3"/>
<path d="M82.1736 17.3771C82.1736 17.2829 82.2124 17.1777 82.2493 17.0835C82.5336 16.4022 82.8069 15.7227 83.082 15.0415L83.7633 13.3594C83.791 13.3114 83.8113 13.256 83.839 13.208C83.9996 12.9533 84.3116 12.944 84.4815 13.1803C84.5387 13.256 84.5664 13.3317 84.6052 13.4167C84.8046 13.9078 85.0114 14.41 85.2108 14.9104L86.062 17.0096C86.0989 17.1038 86.1377 17.198 86.1654 17.294C86.2134 17.4731 86.1284 17.6429 85.9659 17.7389C85.8145 17.8239 85.6447 17.7962 85.5118 17.654C85.4545 17.5968 85.4268 17.5303 85.3991 17.4546C85.2865 17.1906 85.1813 16.9339 85.0779 16.6699C85.0594 16.6219 85.0299 16.5665 85.0114 16.5093C84.9634 16.3856 84.8692 16.3302 84.7271 16.3302C84.3578 16.3394 83.9793 16.3394 83.6026 16.3302C83.4605 16.3302 83.3848 16.3874 83.3275 16.5185C83.2149 16.8213 83.0912 17.1241 82.9675 17.4269C82.9287 17.5118 82.8918 17.5968 82.8253 17.6632C82.6924 17.7869 82.5521 17.8146 82.4099 17.7482C82.2585 17.6817 82.1828 17.5598 82.1736 17.3789V17.3771ZM84.1584 14.4931L83.8556 15.2021C83.8279 15.2686 83.7984 15.335 83.7799 15.4107C83.7522 15.4956 83.7799 15.5437 83.8648 15.5437C84.0642 15.5529 84.2618 15.5529 84.4612 15.5437C84.5646 15.5437 84.5941 15.4864 84.5553 15.3923C84.4889 15.2132 84.4132 15.0322 84.3375 14.8624C84.2895 14.7497 84.2618 14.626 84.1584 14.4931Z" fill="#EFECE3"/>
<path d="M88.9333 15.3813V13.5276C88.9426 13.1676 89.0755 13.0162 89.4448 13.0069C89.8694 12.9977 90.3052 12.9977 90.7409 13.0069C90.8831 13.0069 91.0437 13.0346 91.1859 13.0826C91.6216 13.234 91.9041 13.5368 92.037 13.9799C92.122 14.2643 92.085 14.5375 91.9706 14.8016C91.9263 14.921 91.9576 15.0188 92.0647 15.0951C92.4709 15.3795 92.6611 15.7857 92.6888 16.2675C92.698 16.4946 92.6408 16.731 92.5374 16.9396C92.3195 17.3753 91.9613 17.6394 91.4887 17.752C91.3188 17.7889 91.149 17.8 90.968 17.8C90.4953 17.7908 90.0227 17.8 89.55 17.8C89.4374 17.8 89.3322 17.7908 89.2288 17.752C89.0681 17.704 88.974 17.6006 88.9555 17.4307C88.9463 17.355 88.937 17.2701 88.937 17.1944V15.3795L88.9333 15.3813ZM90.3698 14.8145H90.8055C90.9182 14.8145 91.0142 14.7776 91.0991 14.7019C91.2874 14.5505 91.2985 14.3529 91.2505 14.135C91.2025 13.9356 91.0234 13.8045 90.7778 13.7953C90.4843 13.7861 90.1925 13.7861 89.899 13.7953C89.766 13.7953 89.7291 13.8322 89.7291 13.9559C89.7199 14.183 89.7199 14.4009 89.7199 14.628C89.7291 14.7794 89.7587 14.8071 89.9193 14.8163H90.3735L90.3698 14.8145ZM90.5212 17.0172H91.0603C91.1545 17.0172 91.2486 17.0079 91.3447 16.9802C91.7324 16.8768 91.9022 16.6017 91.8746 16.1863C91.8561 15.9223 91.5441 15.601 91.2025 15.601H89.9174C89.7568 15.6103 89.7291 15.6379 89.718 15.8004V16.8122C89.7273 16.9821 89.7568 17.0116 89.9267 17.0208H90.523L90.5212 17.0172Z" fill="#EFECE3"/>
<path d="M95.4558 17.3771C95.4558 17.2829 95.4946 17.1777 95.5315 17.0835C95.8158 16.4022 96.0891 15.7227 96.3642 15.0415L97.0455 13.3594C97.0732 13.3114 97.0935 13.256 97.1212 13.208C97.2818 12.9533 97.5939 12.944 97.7637 13.1803C97.821 13.256 97.8487 13.3317 97.8874 13.4167C98.0868 13.9078 98.2936 14.41 98.493 14.9104L99.3442 17.0096C99.3811 17.1038 99.4199 17.198 99.4476 17.294C99.4956 17.4731 99.4106 17.6429 99.2482 17.7389C99.0968 17.8239 98.9269 17.7962 98.794 17.654C98.7367 17.5968 98.709 17.5303 98.6813 17.4546C98.5687 17.1906 98.4635 16.9339 98.3601 16.6699C98.3416 16.6219 98.3121 16.5665 98.2936 16.5093C98.2456 16.3856 98.1515 16.3302 98.0093 16.3302C97.64 16.3394 97.2615 16.3394 96.8849 16.3302C96.7427 16.3302 96.667 16.3874 96.6116 16.5185C96.499 16.8213 96.3753 17.1241 96.2516 17.4269C96.2128 17.5118 96.1759 17.5968 96.1094 17.6632C95.9765 17.7869 95.8362 17.8146 95.694 17.7482C95.5426 17.6817 95.4669 17.5598 95.4577 17.3789L95.4558 17.3771ZM97.4406 14.4931L97.1378 15.2021C97.1101 15.2686 97.0806 15.335 97.0621 15.4107C97.0344 15.4956 97.0621 15.5437 97.147 15.5437C97.3464 15.5529 97.544 15.5529 97.7434 15.5437C97.8468 15.5437 97.8763 15.4864 97.8376 15.3923C97.7711 15.2132 97.6954 15.0322 97.6197 14.8624C97.5717 14.7497 97.544 14.626 97.4406 14.4931Z" fill="#EFECE3"/>
<path d="M103.028 14.6934C102.991 14.806 103 14.8817 103 14.9666V17.1878C103 17.2635 103 17.3484 102.991 17.4241C102.954 17.6124 102.803 17.7546 102.622 17.7546C102.433 17.7546 102.262 17.6217 102.225 17.4241C102.216 17.3576 102.216 17.2912 102.216 17.2247V13.5856C102.216 13.5191 102.216 13.4619 102.225 13.4065C102.243 13.2459 102.337 13.1332 102.489 13.076C102.64 13.0188 102.782 13.0668 102.886 13.1794C102.971 13.2643 103.046 13.3788 103.122 13.4822C103.613 14.1432 104.086 14.806 104.579 15.467C104.721 15.6664 104.854 15.8732 105.024 16.0634C105.1 15.9877 105.072 15.9027 105.072 15.8363V13.6705C105.072 13.5948 105.072 13.5099 105.081 13.4342C105.1 13.292 105.157 13.1794 105.299 13.1037C105.526 12.9911 105.772 13.0852 105.847 13.3308C105.875 13.4434 105.895 13.5579 105.895 13.6705V17.1693C105.895 17.2727 105.886 17.3779 105.858 17.4721C105.746 17.7841 105.395 17.8598 105.168 17.6143C105.101 17.5386 105.044 17.4536 104.989 17.3687L103.523 15.3636C103.371 15.1457 103.211 14.9389 103.032 14.6915L103.028 14.6934Z" fill="#EFECE3"/>
<path d="M108.663 17.3771C108.663 17.2829 108.702 17.1777 108.739 17.0835C109.023 16.4022 109.296 15.7227 109.571 15.0415L110.253 13.3594C110.28 13.3114 110.301 13.256 110.328 13.208C110.489 12.9533 110.801 12.944 110.971 13.1803C111.028 13.256 111.056 13.3317 111.095 13.4167C111.294 13.9078 111.501 14.41 111.7 14.9104L112.551 17.0096C112.588 17.1038 112.627 17.198 112.655 17.294C112.703 17.4731 112.618 17.6429 112.455 17.7389C112.304 17.8239 112.134 17.7962 112.001 17.654C111.944 17.5968 111.916 17.5303 111.889 17.4546C111.776 17.1906 111.671 16.9339 111.567 16.6699C111.549 16.6219 111.519 16.5665 111.501 16.5093C111.453 16.3856 111.359 16.3302 111.217 16.3302C110.847 16.3394 110.469 16.3394 110.092 16.3302C109.95 16.3302 109.874 16.3874 109.819 16.5185C109.706 16.8213 109.583 17.1241 109.459 17.4269C109.42 17.5118 109.383 17.5968 109.317 17.6632C109.184 17.7869 109.043 17.8146 108.901 17.7482C108.75 17.6817 108.674 17.5598 108.665 17.3789L108.663 17.3771ZM110.648 14.4931L110.345 15.2021C110.317 15.2686 110.288 15.335 110.269 15.4107C110.242 15.4956 110.269 15.5437 110.354 15.5437C110.554 15.5529 110.751 15.5529 110.951 15.5437C111.054 15.5437 111.084 15.4864 111.045 15.3923C110.978 15.2132 110.903 15.0322 110.827 14.8624C110.779 14.7497 110.751 14.626 110.648 14.4931Z" fill="#EFECE3"/>
</svg>
