<svg width="56" height="56" viewBox="0 0 56 56" fill="none" xmlns="http://www.w3.org/2000/svg">
<path d="M10.0702 6.907C10.2754 6.64138 10.6953 6.77498 10.7096 7.11059C10.7733 8.73611 11.3379 10.1708 12.4958 11.3509C13.6839 12.5613 15.1536 13.1323 16.7982 13.1721C17.1227 13.1801 17.2658 13.5841 17.0193 13.7972C16.321 14.4016 14.9198 14.9853 14.037 15.0283C11.8882 15.1348 9.51038 13.4234 9.0364 10.9804C8.76919 9.60613 9.35769 7.82792 10.0687 6.907H10.0702Z" fill="#EFECE3"/>
<path d="M29.5161 10.5175C29.5161 10.6256 29.4477 10.6733 29.3379 10.694C29.0007 10.7545 28.2421 10.9708 27.7888 11.176C27.5661 11.2762 27.3911 11.4575 27.2957 11.6817C27.0396 12.2925 26.774 13.4616 26.6945 13.8306C26.6722 13.9323 26.5768 14.0119 26.4654 14.0119C26.3541 14.0119 26.2587 13.9308 26.2364 13.8306C26.1569 13.46 25.8913 12.2909 25.6352 11.6817C25.5397 11.4575 25.3648 11.2762 25.1421 11.176C24.6904 10.9724 23.9317 10.7561 23.5929 10.694C23.4816 10.6733 23.4148 10.6256 23.4148 10.5175C23.4148 10.4093 23.4832 10.3616 23.5929 10.3409C23.9301 10.2789 24.6888 10.0642 25.1421 9.85899C25.3648 9.75879 25.5397 9.57747 25.6352 9.35321C25.8913 8.74244 26.1569 7.5734 26.2364 7.2028C26.2587 7.10101 26.3541 7.02148 26.4654 7.02148C26.5768 7.02148 26.6722 7.1026 26.6945 7.2028C26.774 7.5734 27.0396 8.74244 27.2957 9.35321C27.3911 9.57747 27.5661 9.75879 27.7888 9.85899C28.2405 10.0626 28.9992 10.2789 29.3379 10.3409C29.4493 10.3616 29.5161 10.4093 29.5161 10.5175Z" fill="#EFECE3"/>
<path d="M23.1191 3.88319C23.1191 3.94204 23.0825 3.96749 23.022 3.97862C22.8407 4.01202 22.4319 4.12813 22.187 4.23788C22.0661 4.29196 21.9723 4.38898 21.9214 4.50986C21.783 4.8391 21.6399 5.46895 21.5969 5.66777C21.5858 5.72185 21.5333 5.76638 21.4744 5.76638C21.4156 5.76638 21.3631 5.72344 21.352 5.66777C21.309 5.46895 21.1659 4.8391 21.0275 4.50986C20.9766 4.38898 20.8828 4.29196 20.7619 4.23788C20.5185 4.12813 20.1098 4.01202 19.9269 3.97862C19.8664 3.96749 19.8298 3.94204 19.8298 3.88319C19.8298 3.82434 19.8664 3.79889 19.9269 3.78776C20.1082 3.75436 20.5169 3.63825 20.7619 3.5285C20.8828 3.47442 20.9766 3.3774 21.0275 3.25652C21.1659 2.92728 21.309 2.29743 21.352 2.09861C21.3631 2.04453 21.4156 2 21.4744 2C21.5333 2 21.5858 2.04294 21.5969 2.09861C21.6399 2.29743 21.783 2.92728 21.9214 3.25652C21.9723 3.3774 22.0661 3.47442 22.187 3.5285C22.4304 3.63825 22.8391 3.75436 23.022 3.78776C23.0825 3.79889 23.1191 3.82434 23.1191 3.88319Z" fill="#EFECE3"/>
<path d="M13.603 48.0462H11.1742C10.7352 48.0462 10.379 47.6899 10.379 47.2509C10.379 46.8119 10.7352 46.4556 11.1742 46.4556H13.603C14.139 46.4556 14.5748 46.0198 14.5748 45.4838V39.9726C14.5748 39.4366 14.139 39.0008 13.603 39.0008H5.35605C5.33856 39.0008 5.32424 39.0008 5.3147 39.0008C5.29402 39.0135 5.26539 39.0342 5.23994 39.0517C5.19382 39.0835 5.14292 39.1185 5.08566 39.1567C4.71825 39.3969 4.22518 39.2935 3.98501 38.9261C3.74484 38.5586 3.84823 38.0656 4.21564 37.8254C4.25858 37.7968 4.29676 37.7713 4.33016 37.7475C4.59578 37.5614 4.85662 37.4087 5.35764 37.4087H13.6046C15.0169 37.4087 16.1669 38.5586 16.1669 39.971V45.4822C16.1669 46.8946 15.0169 48.0446 13.6046 48.0446L13.603 48.0462Z" fill="#EFECE3"/>
<path d="M26.1968 53.6925C12.8554 53.6925 2 42.8387 2 29.4957V24.8021C2 24.5396 2.12883 24.2963 2.34356 24.1468L9.40552 19.2829C9.69341 19.0857 10.0751 19.0968 10.3487 19.3132L25.1518 30.9877C25.4174 31.1976 25.5224 31.5523 25.4111 31.872C25.2997 32.1917 24.9991 32.4064 24.6603 32.4064H3.77662C5.20969 43.5004 14.7179 52.1004 26.1968 52.1004C38.6618 52.1004 48.803 41.9592 48.803 29.4942C48.803 29.0552 49.1593 28.6989 49.5983 28.6989C50.0373 28.6989 50.3935 29.0552 50.3935 29.4942C50.3935 42.8355 39.5398 53.6909 26.1968 53.6909V53.6925ZM3.62871 30.8175H22.3684L9.82542 20.926L3.59053 25.2204V29.4957C3.59053 29.9395 3.60326 30.3801 3.62871 30.8175Z" fill="#EFECE3"/>
<path d="M21.3631 37.6535C20.9242 37.6535 20.5679 37.2972 20.5679 36.8582V31.6126C20.5679 31.1737 20.9242 30.8174 21.3631 30.8174C21.8021 30.8174 22.1584 31.1737 22.1584 31.6126V36.8582C22.1584 37.2972 21.8021 37.6535 21.3631 37.6535Z" fill="#EFECE3"/>
<path d="M9.48032 46.6114C9.04134 46.6114 8.68506 46.2551 8.68506 45.8161V38.4281C8.68506 37.9891 9.04134 37.6328 9.48032 37.6328C9.91931 37.6328 10.2756 37.9891 10.2756 38.4281V45.8161C10.2756 46.2551 9.91931 46.6114 9.48032 46.6114Z" fill="#EFECE3"/>
<path d="M38.7811 49.6159C38.3421 49.6159 37.9858 49.2596 37.9858 48.8206V36.8583C37.9858 36.4193 38.3421 36.063 38.7811 36.063C39.2201 36.063 39.5764 36.4193 39.5764 36.8583V48.8206C39.5764 49.2596 39.2201 49.6159 38.7811 49.6159Z" fill="#EFECE3"/>
<path d="M38.6333 45.5441H21.3648C20.9259 45.5441 20.5696 45.1879 20.5696 44.7489C20.5696 44.3099 20.9259 43.9536 21.3648 43.9536H38.6333C39.0722 43.9536 39.4285 44.3099 39.4285 44.7489C39.4285 45.1879 39.0722 45.5441 38.6333 45.5441Z" fill="#EFECE3"/>
<path d="M33.4513 45.5441C33.0123 45.5441 32.656 45.1878 32.656 44.7488V37.1126C32.656 36.6737 33.0123 36.3174 33.4513 36.3174C33.8903 36.3174 34.2465 36.6737 34.2465 37.1126V44.7488C34.2465 45.1878 33.8903 45.5441 33.4513 45.5441Z" fill="#EFECE3"/>
<path d="M21.363 52.5252C20.9241 52.5252 20.5678 52.1689 20.5678 51.7299V36.8584C20.5678 36.4194 20.9241 36.0632 21.363 36.0632H40.6196L33.5529 32.2348C33.5131 32.2125 33.475 32.1886 33.4384 32.16L21.5444 22.7663H12.763C12.3241 22.7663 11.9678 22.41 11.9678 21.971C11.9678 21.5321 12.3241 21.1758 12.763 21.1758H21.8211C21.9993 21.1758 22.1742 21.2362 22.3142 21.3476L34.372 30.8701L44.1379 36.1602C44.4576 36.3336 44.6198 36.7026 44.5307 37.0541C44.4417 37.4056 44.1236 37.6537 43.7593 37.6537H22.1583V51.7299C22.1583 52.1689 21.802 52.5252 21.363 52.5252Z" fill="#EFECE3"/>
<path d="M26.9079 26.7854H21.9549C21.5159 26.7854 21.1597 26.4291 21.1597 25.9901C21.1597 25.5511 21.5159 25.1948 21.9549 25.1948H26.9079C27.3468 25.1948 27.7031 25.5511 27.7031 25.9901C27.7031 26.4291 27.3468 26.7854 26.9079 26.7854Z" fill="#EFECE3"/>
<path d="M15.9855 25.6433H11.0326C10.5936 25.6433 10.2373 25.287 10.2373 24.848C10.2373 24.409 10.5936 24.0527 11.0326 24.0527H15.9855C16.4245 24.0527 16.7808 24.409 16.7808 24.848C16.7808 25.287 16.4245 25.6433 15.9855 25.6433Z" fill="#EFECE3"/>
<path d="M20.4581 29.2238H15.5052C15.0662 29.2238 14.71 28.8676 14.71 28.4286C14.71 27.9896 15.0662 27.6333 15.5052 27.6333H20.4581C20.8971 27.6333 21.2534 27.9896 21.2534 28.4286C21.2534 28.8676 20.8971 29.2238 20.4581 29.2238Z" fill="#EFECE3"/>
<path d="M31.1498 30.1589H26.1969C25.7579 30.1589 25.4016 29.8026 25.4016 29.3636C25.4016 28.9246 25.7579 28.5684 26.1969 28.5684H31.1498C31.5888 28.5684 31.9451 28.9246 31.9451 29.3636C31.9451 29.8026 31.5888 30.1589 31.1498 30.1589Z" fill="#EFECE3"/>
<path d="M36.2218 33.6057H30.6168C30.1778 33.6057 29.8215 33.2494 29.8215 32.8104C29.8215 32.3714 30.1778 32.0151 30.6168 32.0151H36.2218C36.6608 32.0151 37.0171 32.3714 37.0171 32.8104C37.0171 33.2494 36.6608 33.6057 36.2218 33.6057Z" fill="#EFECE3"/>
<path d="M46.0404 42.2852C45.6014 42.2852 45.2451 41.929 45.2451 41.49V14.3348C45.2451 13.8958 45.6014 13.5396 46.0404 13.5396C46.4794 13.5396 46.8357 13.8958 46.8357 14.3348V41.49C46.8357 41.929 46.4794 42.2852 46.0404 42.2852Z" fill="#EFECE3"/>
<path d="M50.904 19.1189C47.7834 19.1189 45.2449 16.5804 45.2449 13.4598C45.2449 13.0208 45.6012 12.6646 46.0401 12.6646C46.4791 12.6646 46.8354 13.0208 46.8354 13.4598C46.8354 15.7025 48.6613 17.5284 50.904 17.5284C51.343 17.5284 51.6993 17.8847 51.6993 18.3237C51.6993 18.7627 51.343 19.1189 50.904 19.1189Z" fill="#EFECE3"/>
<path d="M41.1764 19.1189C40.7374 19.1189 40.3811 18.7627 40.3811 18.3237C40.3811 17.8847 40.7374 17.5284 41.1764 17.5284C43.419 17.5284 45.245 15.7041 45.245 13.4598C45.245 13.0208 45.6012 12.6646 46.0402 12.6646C46.4792 12.6646 46.8355 13.0208 46.8355 13.4598C46.8355 16.5804 44.297 19.1189 41.1764 19.1189Z" fill="#EFECE3"/>
<path d="M52.4965 24.8195C48.4979 24.8195 45.2437 21.5668 45.2437 17.5682C45.2437 17.1292 45.5999 16.7729 46.0389 16.7729C46.4779 16.7729 46.8342 17.1292 46.8342 17.5682C46.8342 20.6904 49.3743 23.2289 52.4965 23.2289C52.9355 23.2289 53.2917 23.5852 53.2917 24.0242C53.2917 24.4632 52.9355 24.8195 52.4965 24.8195Z" fill="#EFECE3"/>
<path d="M39.5829 24.8195C39.1439 24.8195 38.7876 24.4632 38.7876 24.0242C38.7876 23.5852 39.1439 23.2289 39.5829 23.2289C42.7051 23.2289 45.2452 20.6888 45.2452 17.5682C45.2452 17.1292 45.6014 16.7729 46.0404 16.7729C46.4794 16.7729 46.8357 17.1292 46.8357 17.5682C46.8357 21.5668 43.5831 24.8195 39.5829 24.8195Z" fill="#EFECE3"/>
<path d="M53.8975 31.4518C49.1259 31.4518 45.2434 27.5693 45.2434 22.7977C45.2434 22.3587 45.5997 22.0024 46.0387 22.0024C46.4777 22.0024 46.8339 22.3587 46.8339 22.7977C46.8339 26.6929 50.0023 29.8613 53.8975 29.8613C54.3365 29.8613 54.6928 30.2175 54.6928 30.6565C54.6928 31.0955 54.3365 31.4518 53.8975 31.4518Z" fill="#EFECE3"/>
<path d="M38.1815 31.4518C37.7425 31.4518 37.3862 31.0955 37.3862 30.6565C37.3862 30.2175 37.7425 29.8613 38.1815 29.8613C42.0767 29.8613 45.2451 26.6929 45.2451 22.7977C45.2451 22.3587 45.6013 22.0024 46.0403 22.0024C46.4793 22.0024 46.8356 22.3587 46.8356 22.7977C46.8356 27.5693 42.9531 31.4518 38.1815 31.4518Z" fill="#EFECE3"/>
<path d="M34.4979 32.5127C34.0589 32.5127 33.7026 32.1564 33.7026 31.7175V18.8055C33.7026 18.3665 34.0589 18.0103 34.4979 18.0103C34.9369 18.0103 35.2932 18.3665 35.2932 18.8055V31.7175C35.2932 32.1564 34.9369 32.5127 34.4979 32.5127Z" fill="#EFECE3"/>
<path d="M38.5156 22.8963C35.8626 22.8963 33.7026 20.738 33.7026 18.0834C33.7026 17.6444 34.0589 17.2881 34.4979 17.2881C34.9369 17.2881 35.2932 17.6444 35.2932 18.0834C35.2932 19.86 36.739 21.3058 38.5156 21.3058C38.9546 21.3058 39.3109 21.662 39.3109 22.101C39.3109 22.54 38.9546 22.8963 38.5156 22.8963Z" fill="#EFECE3"/>
<path d="M30.4818 22.8963C30.0428 22.8963 29.6865 22.54 29.6865 22.101C29.6865 21.662 30.0428 21.3058 30.4818 21.3058C32.2584 21.3058 33.7042 19.86 33.7042 18.0834C33.7042 17.6444 34.0605 17.2881 34.4995 17.2881C34.9385 17.2881 35.2947 17.6444 35.2947 18.0834C35.2947 20.7364 33.1364 22.8963 30.4818 22.8963Z" fill="#EFECE3"/>
<path d="M39.831 28.4426C36.4527 28.4426 33.7026 25.6942 33.7026 22.3143C33.7026 21.8753 34.0589 21.519 34.4979 21.519C34.9369 21.519 35.2932 21.8753 35.2932 22.3143C35.2932 24.8162 37.329 26.8521 39.831 26.8521C40.2699 26.8521 40.6262 27.2084 40.6262 27.6474C40.6262 28.0864 40.2699 28.4426 39.831 28.4426Z" fill="#EFECE3"/>
<path d="M29.1664 28.4426C28.7274 28.4426 28.3711 28.0864 28.3711 27.6474C28.3711 27.2084 28.7274 26.8521 29.1664 26.8521C31.6683 26.8521 33.7041 24.8162 33.7041 22.3143C33.7041 21.8753 34.0604 21.519 34.4994 21.519C34.9384 21.519 35.2947 21.8753 35.2947 22.3143C35.2947 25.6926 32.5462 28.4426 29.1664 28.4426Z" fill="#EFECE3"/>
</svg>
